<svg width="110" height="110" viewBox="0 0 110 110" fill="none" xmlns="http://www.w3.org/2000/svg">
<path d="M0.976382 63.7925L15.6607 25.5522C17.6431 20.3899 22.3572 16.779 27.8572 16.21L77.4638 11.0784C83.7969 10.4232 89.8306 13.9247 92.4044 19.7488L108.747 56.7276C110.794 61.3608 110.31 66.7223 107.464 70.9131L92.7652 92.5641C89.8635 96.8381 84.9297 99.2728 79.7727 98.9756L24.8653 95.811C21.036 95.5903 17.445 93.8798 14.8605 91.0452L3.83398 78.952C0.0905387 74.8464 -1.01541 68.9794 0.976382 63.7925Z" fill="#B1C7EC"/>
<path d="M15.5181 38.4067H54.7806C54.7806 48.3464 46.7238 56.4041 36.7853 56.4041H33.5134C23.5749 56.4041 15.5181 48.3464 15.5181 38.4067Z" fill="#FCFDFF"/>
<path d="M27.785 38.4067H42.713V42.3948C42.713 46.5175 39.3713 49.8596 35.249 49.8596C31.1268 49.8596 27.785 46.5175 27.785 42.3948V38.4067Z" fill="#122648"/>
<path d="M54.7786 33.09H94.0411V36.7712C94.0411 47.6145 85.2519 56.4047 74.4098 56.4047C63.5678 56.4047 54.7786 47.6145 54.7786 36.7712V33.09Z" fill="#FCFDFF"/>
<path d="M67.0531 33.09H81.9811V42.3954C81.9811 46.5181 78.6393 49.8602 74.5171 49.8602C70.3948 49.8602 67.0531 46.5181 67.0531 42.3954V33.09Z" fill="#122648"/>
<path d="M42.489 79.5106C48.027 81.0143 61.1495 80.511 58.6531 75.5409C56.777 71.8055 51.2297 76.1893 43.9288 74.2069C36.6279 72.2245 34.0591 65.6369 30.5517 67.9105C25.8848 70.9356 36.9511 78.0068 42.489 79.5106Z" fill="#122648"/>
<path d="M22.4502 23.3792C27.9882 21.8754 41.1107 22.3787 38.6143 27.3488C36.7382 31.0842 31.1909 26.7004 23.89 28.6828C16.5891 30.6652 14.0203 37.2528 10.5129 34.9792C5.84602 31.9541 16.9123 24.8829 22.4502 23.3792Z" fill="#122648"/>
</svg>
