<svg width="80" height="80" viewBox="0 0 80 80" fill="none" xmlns="http://www.w3.org/2000/svg">
<g clip-path="url(#clip0_10_342)">
<path d="M40.0131 0C23.3134 0 18.4294 0.0172344 17.4801 0.0959998C14.053 0.380946 11.9205 0.920693 9.59723 2.07768C7.80682 2.96702 6.39476 3.99786 5.00117 5.44291C2.4632 8.07821 0.925024 11.3203 0.368194 15.1742C0.097489 17.0451 0.0187229 17.4267 0.00272798 26.9832C-0.00340997 30.1687 0.00272798 34.3611 0.00272798 39.9843C0.00272798 56.6749 0.021172 61.5554 0.101177 62.5031C0.37805 65.8388 0.901015 67.9374 2.00851 70.233C4.12504 74.6272 8.16733 77.926 12.9295 79.1569C14.5785 79.5815 16.3997 79.8154 18.7377 79.9261C19.7283 79.9692 29.8248 80 39.9275 80C50.0303 80 60.133 79.9877 61.0989 79.9385C63.8061 79.8111 65.3781 79.6 67.1163 79.1507C71.9092 77.9137 75.8777 74.6642 78.0373 70.2084C79.1232 67.9682 79.6739 65.7896 79.9231 62.6281C79.9772 61.9388 80 50.9489 80 39.9739C80 28.9969 79.9754 18.0274 79.9212 17.3381C79.669 14.1255 79.1183 11.9653 77.9973 9.68203C77.0775 7.81295 76.0561 6.41712 74.5734 4.98997C71.9271 2.46174 68.6908 0.923142 64.8343 0.366796C62.9657 0.0966049 62.5934 0.0165997 53.0321 0H40.0131Z" fill="url(#paint0_radial_10_342)"/>
<path d="M40.0131 0C23.3134 0 18.4294 0.0172344 17.4801 0.0959998C14.053 0.380946 11.9205 0.920693 9.59723 2.07768C7.80682 2.96702 6.39476 3.99786 5.00117 5.44291C2.4632 8.07821 0.925024 11.3203 0.368194 15.1742C0.097489 17.0451 0.0187229 17.4267 0.00272798 26.9832C-0.00340997 30.1687 0.00272798 34.3611 0.00272798 39.9843C0.00272798 56.6749 0.021172 61.5554 0.101177 62.5031C0.37805 65.8388 0.901015 67.9374 2.00851 70.233C4.12504 74.6272 8.16733 77.926 12.9295 79.1569C14.5785 79.5815 16.3997 79.8154 18.7377 79.9261C19.7283 79.9692 29.8248 80 39.9275 80C50.0303 80 60.133 79.9877 61.0989 79.9385C63.8061 79.8111 65.3781 79.6 67.1163 79.1507C71.9092 77.9137 75.8777 74.6642 78.0373 70.2084C79.1232 67.9682 79.6739 65.7896 79.9231 62.6281C79.9772 61.9388 80 50.9489 80 39.9739C80 28.9969 79.9754 18.0274 79.9212 17.3381C79.669 14.1255 79.1183 11.9653 77.9973 9.68203C77.0775 7.81295 76.0561 6.41712 74.5734 4.98997C71.9271 2.46174 68.6908 0.923142 64.8343 0.366796C62.9657 0.0966049 62.5934 0.0165997 53.0321 0H40.0131Z" fill="url(#paint1_radial_10_342)"/>
<path d="M40.0131 0C23.3134 0 18.4294 0.0172344 17.4801 0.0959998C14.053 0.380946 11.9205 0.920693 9.59723 2.07768C7.80682 2.96702 6.39476 3.99786 5.00117 5.44291C2.4632 8.07821 0.925024 11.3203 0.368194 15.1742C0.097489 17.0451 0.0187229 17.4267 0.00272798 26.9832C-0.00340997 30.1687 0.00272798 34.3611 0.00272798 39.9843C0.00272798 56.6749 0.021172 61.5554 0.101177 62.5031C0.37805 65.8388 0.901015 67.9374 2.00851 70.233C4.12504 74.6272 8.16733 77.926 12.9295 79.1569C14.5785 79.5815 16.3997 79.8154 18.7377 79.9261C19.7283 79.9692 29.8248 80 39.9275 80C50.0303 80 60.133 79.9877 61.0989 79.9385C63.8061 79.8111 65.3781 79.6 67.1163 79.1507C71.9092 77.9137 75.8777 74.6642 78.0373 70.2084C79.1232 67.9682 79.6739 65.7896 79.9231 62.6281C79.9772 61.9388 80 50.9489 80 39.9739C80 28.9969 79.9754 18.0274 79.9212 17.3381C79.669 14.1255 79.1183 11.9653 77.9973 9.68203C77.0775 7.81295 76.0561 6.41712 74.5734 4.98997C71.9271 2.46174 68.6908 0.923142 64.8343 0.366796C62.9657 0.0966049 62.5934 0.0165997 53.0321 0H40.0131Z" fill="url(#paint2_radial_10_342)"/>
<path d="M40.0131 0C23.3134 0 18.4294 0.0172344 17.4801 0.0959998C14.053 0.380946 11.9205 0.920693 9.59723 2.07768C7.80682 2.96702 6.39476 3.99786 5.00117 5.44291C2.4632 8.07821 0.925024 11.3203 0.368194 15.1742C0.097489 17.0451 0.0187229 17.4267 0.00272798 26.9832C-0.00340997 30.1687 0.00272798 34.3611 0.00272798 39.9843C0.00272798 56.6749 0.021172 61.5554 0.101177 62.5031C0.37805 65.8388 0.901015 67.9374 2.00851 70.233C4.12504 74.6272 8.16733 77.926 12.9295 79.1569C14.5785 79.5815 16.3997 79.8154 18.7377 79.9261C19.7283 79.9692 29.8248 80 39.9275 80C50.0303 80 60.133 79.9877 61.0989 79.9385C63.8061 79.8111 65.3781 79.6 67.1163 79.1507C71.9092 77.9137 75.8777 74.6642 78.0373 70.2084C79.1232 67.9682 79.6739 65.7896 79.9231 62.6281C79.9772 61.9388 80 50.9489 80 39.9739C80 28.9969 79.9754 18.0274 79.9212 17.3381C79.669 14.1255 79.1183 11.9653 77.9973 9.68203C77.0775 7.81295 76.0561 6.41712 74.5734 4.98997C71.9271 2.46174 68.6908 0.923142 64.8343 0.366796C62.9657 0.0966049 62.5934 0.0165997 53.0321 0H40.0131Z" fill="url(#paint3_radial_10_342)"/>
<path d="M40.0162 10.2721C31.938 10.2721 30.9243 10.3074 27.7515 10.4517C24.5849 10.5966 22.4235 11.0975 20.5322 11.8326C18.5759 12.5917 16.9164 13.6072 15.2631 15.2599C13.6086 16.912 12.5923 18.5702 11.8301 20.5245C11.0926 22.415 10.5907 24.5754 10.4482 27.7384C10.3063 30.9088 10.2691 31.9225 10.2691 39.9946C10.2691 48.0668 10.3051 49.0767 10.4488 52.2471C10.5944 55.4113 11.0958 57.5711 11.8307 59.461C12.591 61.4159 13.6073 63.0741 15.2612 64.7262C16.9139 66.3795 18.5734 67.3975 20.5285 68.1567C22.421 68.8917 24.5831 69.3927 27.749 69.5376C30.9218 69.6818 31.9349 69.7171 40.0125 69.7171C48.0912 69.7171 49.1019 69.6818 52.2747 69.5375C55.4412 69.3927 57.6052 68.8917 59.4976 68.1567C61.4533 67.3975 63.1104 66.3795 64.7631 64.7262C66.4176 63.0741 67.4339 61.4159 68.1961 59.4616C68.9273 57.5711 69.4292 55.4107 69.578 52.2477C69.7205 49.0773 69.7577 48.0667 69.7577 39.9946C69.7577 31.9224 69.7205 30.9094 69.578 27.739C69.4292 24.5748 68.9273 22.415 68.1961 20.5251C67.4339 18.5702 66.4176 16.912 64.7631 15.2599C63.1085 13.6066 61.454 12.5911 59.4958 11.8325C57.5996 11.0975 55.4369 10.5966 52.2703 10.4517C49.0976 10.3074 48.0875 10.2721 40.0069 10.2721H40.0162ZM37.3478 15.6284C38.1398 15.6271 39.0235 15.6284 40.0162 15.6284C47.958 15.6284 48.8993 15.6568 52.0355 15.7992C54.9356 15.9318 56.5095 16.416 57.558 16.8228C58.9461 17.3615 59.9358 18.0055 60.9762 19.0458C62.0173 20.0861 62.6617 21.0769 63.2021 22.4639C63.6092 23.5104 64.0944 25.0832 64.2264 27.9812C64.3689 31.1144 64.3999 32.0556 64.3999 39.9878C64.3999 47.92 64.3689 48.8612 64.2264 51.9945C64.0938 54.8924 63.6092 56.4652 63.2021 57.5117C62.663 58.8988 62.0173 59.8864 60.9762 60.9261C59.9352 61.9664 58.9467 62.6103 57.558 63.1491C56.5108 63.5578 54.9356 64.0407 52.0355 64.1733C48.8999 64.3157 47.958 64.3466 40.0162 64.3466C32.0737 64.3466 31.1325 64.3157 27.9969 64.1733C25.0968 64.0395 23.5228 63.5553 22.4737 63.1485C21.0856 62.6097 20.0941 61.9657 19.0531 60.9255C18.012 59.8852 17.3675 58.8969 16.8272 57.5092C16.42 56.4627 15.9348 54.8899 15.8028 51.992C15.6603 48.8587 15.6318 47.9175 15.6318 39.9804C15.6318 32.0432 15.6603 31.1069 15.8028 27.9737C15.9355 25.0758 16.42 23.503 16.8272 22.4552C17.3663 21.0682 18.012 20.0774 19.0531 19.0372C20.0941 17.9968 21.0856 17.3529 22.4737 16.8129C23.5222 16.4042 25.0968 15.9212 27.9969 15.7881C30.7408 15.6642 31.8042 15.6271 37.3479 15.6209L37.3478 15.6284ZM55.8936 20.5635C53.923 20.5635 52.3242 22.1593 52.3242 24.129C52.3242 26.0981 53.923 27.6957 55.8936 27.6957C57.8642 27.6957 59.463 26.0981 59.463 24.129C59.463 22.1599 57.8642 20.5623 55.8936 20.5623L55.8936 20.5635ZM40.0162 24.7308C31.5805 24.7308 24.7411 31.5652 24.7411 39.9946C24.7411 48.424 31.5805 55.2553 40.0162 55.2553C48.4519 55.2553 55.2888 48.424 55.2888 39.9946C55.2888 31.5652 48.4513 24.7308 40.0156 24.7308H40.0162ZM40.0162 30.0871C45.4916 30.0871 49.9311 34.5226 49.9311 39.9946C49.9311 45.466 45.4916 49.9021 40.0162 49.9021C34.5401 49.9021 30.1013 45.466 30.1013 39.9946C30.1013 34.5226 34.5401 30.0871 40.0162 30.0871Z" fill="white"/>
</g>
<defs>
<radialGradient id="paint0_radial_10_342" cx="0" cy="0" r="1" gradientTransform="matrix(-49.1964 13.8745 -9.99609 -35.4436 77.4168 37.497)" gradientUnits="userSpaceOnUse">
<stop stop-color="#FF005F"/>
<stop offset="1" stop-color="#FC01D8"/>
</radialGradient>
<radialGradient id="paint1_radial_10_342" cx="0" cy="0" r="1" gradientUnits="userSpaceOnUse" gradientTransform="translate(21.2494 86.1616) rotate(-90) scale(63.8575 67.7515)">
<stop stop-color="#FFCC00"/>
<stop offset="0.1242" stop-color="#FFCC00"/>
<stop offset="0.5672" stop-color="#FE4A05"/>
<stop offset="0.6942" stop-color="#FF0F3F"/>
<stop offset="1" stop-color="#FE0657" stop-opacity="0"/>
</radialGradient>
<radialGradient id="paint2_radial_10_342" cx="0" cy="0" r="1" gradientTransform="matrix(13.2545 -22.838 29.7325 17.256 42.0216 78.8718)" gradientUnits="userSpaceOnUse">
<stop stop-color="#FFCC00"/>
<stop offset="1" stop-color="#FFCC00" stop-opacity="0"/>
</radialGradient>
<radialGradient id="paint3_radial_10_342" cx="0" cy="0" r="1" gradientTransform="matrix(-48.6563 13.7008 -4.66666 -16.5775 10.8543 3.25758)" gradientUnits="userSpaceOnUse">
<stop stop-color="#780CFF"/>
<stop offset="1" stop-color="#820BFF" stop-opacity="0"/>
</radialGradient>
<clipPath id="clip0_10_342">
<rect width="80" height="80" fill="white"/>
</clipPath>
</defs>
</svg>
