<svg width="80" height="80" viewBox="0 0 80 80" fill="none" xmlns="http://www.w3.org/2000/svg">
<g clip-path="url(#clip0_10_120)">
<path d="M64 0H16C7.16344 0 0 7.16344 0 16V64C0 72.8366 7.16344 80 16 80H64C72.8366 80 80 72.8366 80 64V16C80 7.16344 72.8366 0 64 0Z" fill="white"/>
<path d="M64 30.261V23.3135L55.5614 27.7002V27.4406C55.5614 24.6713 53.557 23 50.6543 23H23.9056C20.8482 23 19 24.6713 19 27.4406V34.4406L30.8155 40.5L19 46.6119V53.6119C19 56.3287 20.8482 58 23.9056 58H50.6529C53.5541 58 55.557 56.3287 55.557 53.6119V53.2473L63.9971 57.6865V50.6354L44.3747 40.5L64 30.261ZM37.5708 43.946L52.0799 51.471H23.0058L37.5679 43.946H37.5708ZM51.9739 29.5304L37.5693 37L23.0087 29.5304H51.9709H51.9739Z" fill="black"/>
</g>
<defs>
<clipPath id="clip0_10_120">
<rect width="80" height="80" fill="white"/>
</clipPath>
</defs>
</svg>
