<svg width="80" height="80" viewBox="0 0 80 80" fill="none" xmlns="http://www.w3.org/2000/svg">
<path fill-rule="evenodd" clip-rule="evenodd" d="M74.4786 59.5107C69.8565 63.7285 63.9148 67.4773 56.7101 70.9581C56.8567 71.0586 56.9966 71.1491 57.1433 71.2362L57.2033 71.2697L57.2666 71.3099C57.9864 71.7219 58.6662 71.9263 59.4027 71.9263C60.1425 71.9263 60.8223 71.7219 61.5421 71.3099L61.6021 71.273L61.6654 71.2362C62.1319 70.9547 62.5518 70.6398 63.3049 70.01L63.8981 69.5142C64.8279 68.737 65.3177 68.3684 65.9809 67.9865C66.9939 67.4036 68.0203 67.0954 69.1433 67.0954C70.2664 67.0954 71.2928 67.4036 72.3058 67.9865L72.3825 68.0334C73.009 68.3986 73.4955 68.7671 74.3886 69.5142L74.9818 70.01C75.7182 70.6264 76.1348 70.9413 76.5913 71.2161L76.6846 71.273L76.7446 71.3065C77.4444 71.7085 78.1009 71.9129 78.8107 71.9263H78.884C79.0262 71.9148 79.1692 71.933 79.3041 71.9798C79.4389 72.0266 79.5627 72.101 79.6675 72.1982C79.7723 72.2955 79.856 72.4135 79.9132 72.5448C79.9705 72.6762 80 72.8181 80 72.9615C80 73.1049 79.9705 73.2467 79.9132 73.3781C79.856 73.5095 79.7723 73.6275 79.6675 73.7247C79.5627 73.822 79.4389 73.8963 79.3041 73.9431C79.1692 73.9899 79.0262 74.0082 78.884 73.9967C77.761 73.9967 76.7346 73.6884 75.7182 73.1055C75.6173 73.0469 75.5173 72.9866 75.4183 72.9246L75.345 72.8777L75.2717 72.8342L75.205 72.7873C74.637 72.3982 74.0918 71.9765 73.5721 71.5243L73.0423 71.082C72.538 70.6382 71.9999 70.235 71.4327 69.876L71.3427 69.8191L71.2794 69.7856C70.636 69.3892 69.8979 69.175 69.1433 69.1658C68.4035 69.1658 67.7237 69.3701 67.0073 69.7822L66.9406 69.8191L66.8806 69.8559C66.4141 70.1373 65.9942 70.4522 65.2411 71.082L64.7145 71.5243C64.1758 71.9951 63.6081 72.4314 63.015 72.8308L62.9417 72.8777L62.8684 72.9246L62.5685 73.1055C61.6117 73.6824 60.5183 73.9902 59.4027 73.9967C58.2796 73.9967 57.2566 73.6884 56.2402 73.1055C56.1392 73.0469 56.0392 72.9866 55.9403 72.9246L55.867 72.8777L55.7936 72.8342L55.707 72.7772C55.2155 72.4406 54.7427 72.0771 54.2907 71.6884C54.131 71.6132 53.9933 71.4978 53.8908 71.3534L53.5642 71.082C53.06 70.6382 52.5218 70.235 51.9547 69.876L51.8647 69.8191L51.8014 69.7856C51.158 69.3892 50.4199 69.175 49.6653 69.1658C48.9255 69.1658 48.2457 69.3701 47.5259 69.7822L47.4659 69.8191L47.4026 69.8559C46.936 70.1373 46.5162 70.4522 45.763 71.082L45.2365 71.5243C44.6977 71.9951 44.1301 72.4314 43.537 72.8308L43.4603 72.8777L43.387 72.9246L43.0871 73.1055C42.1313 73.6818 41.0391 73.9896 39.9246 73.9967C38.8016 73.9967 37.7752 73.6884 36.7621 73.1055C36.6612 73.0469 36.5612 72.9866 36.4622 72.9246L36.3889 72.8777L36.3156 72.8342L36.2456 72.7873C35.6776 72.3982 35.1324 71.9765 34.6127 71.5243L34.0862 71.082C33.5819 70.6382 33.0438 70.235 32.4766 69.876L32.3833 69.8191L32.3233 69.7856C31.6789 69.3886 30.9396 69.1744 30.1839 69.1658C29.4474 69.1658 28.7676 69.3701 28.0478 69.7822L27.9845 69.8191L27.9245 69.8559C27.4547 70.1373 27.0381 70.4522 26.285 71.082L25.7585 71.5243C25.2186 71.9952 24.6498 72.4315 24.0556 72.8308L23.9823 72.8777L23.909 72.9246L23.609 73.1055C22.6167 73.7013 21.479 74.0075 20.3233 73.9899C17.8373 73.6884 15.9278 72.7169 14.025 71.0887L13.9083 70.9882C13.7517 70.8509 13.5151 70.6331 13.2685 70.4053L12.6153 69.799L12.2588 69.4639L12.2221 69.4304C11.8895 69.0975 11.5127 68.8123 11.1024 68.5829C11.0029 68.5326 10.896 68.4987 10.7858 68.4824H10.7692C10.3726 68.5561 9.97606 68.68 9.56618 68.8509C9.49207 68.9324 9.40544 69.0013 9.30958 69.0552L9.28292 69.072C9.15262 69.1396 9.00946 69.1784 8.86303 69.1859C7.9573 69.6921 7.09462 70.2725 6.28373 70.9212L4.89744 72.0067L4.71416 72.1507C4.36237 72.4253 4.0023 72.689 3.63445 72.9414C2.61806 73.6348 1.79495 73.9967 0.968508 73.9967C0.709092 73.9803 0.465332 73.8663 0.285846 73.6773C0.10636 73.4883 0.00434068 73.2382 0.000135357 72.9769C-0.00406997 72.7157 0.0898481 72.4624 0.263157 72.2677C0.436467 72.0729 0.676429 71.951 0.935183 71.9263H0.968508C1.26843 71.9263 1.75163 71.7186 2.42811 71.263L2.56141 71.1725C2.81801 70.9916 3.10459 70.7805 3.46116 70.5058L4.74415 69.4974L4.9441 69.34C5.83719 68.6499 6.63031 68.0904 7.37677 67.6482L5.26734 63.5945C5.18828 63.4418 5.14835 63.2717 5.15118 63.0995C5.15401 62.9274 5.1995 62.7587 5.28355 62.6086C5.36759 62.4586 5.48752 62.332 5.63249 62.2404C5.77746 62.1487 5.94288 62.0948 6.11378 62.0836L73.7188 57.7117C73.9319 57.6977 74.1441 57.7507 74.3259 57.8633C74.5078 57.9758 74.6503 58.1425 74.7338 58.3401C74.8173 58.5378 74.8375 58.7566 74.7918 58.9663C74.7461 59.1761 74.6366 59.3663 74.4786 59.5107ZM70.7529 59.9798L7.82998 64.0468L9.2396 66.757C9.66615 66.6063 10.0927 66.4957 10.5326 66.422C10.5898 66.4116 10.6477 66.406 10.7059 66.4053C11.1457 66.4053 11.5723 66.5125 11.9922 66.7168C12.502 66.9614 12.9719 67.3165 13.6017 67.8894L13.6551 67.9396L13.9617 68.2277L14.4415 68.6767L14.7648 68.9748C14.9814 69.1758 15.1813 69.3567 15.298 69.4572C16.9142 70.8576 18.4571 71.6616 20.4766 71.9229H20.5132C21.2174 71.9039 21.9054 71.7057 22.5127 71.3467L22.5826 71.3099L22.646 71.273L22.7059 71.2362C23.1758 70.9547 23.5924 70.6398 24.3455 70.01L24.9387 69.5142C25.8684 68.737 26.3583 68.3684 27.0214 67.9865C28.0378 67.4036 29.0609 67.0954 30.1872 67.0954C31.3069 67.0954 32.3333 67.4036 33.3464 67.9865L33.423 68.0334C34.0495 68.3986 34.5394 68.7671 35.4325 69.5142L36.0223 70.01C36.7621 70.6264 37.1754 70.9413 37.6352 71.2161L37.7252 71.273L37.7885 71.3065C38.505 71.7219 39.1881 71.9263 39.9246 71.9263C40.6644 71.9263 41.3442 71.7219 42.0607 71.3099L42.124 71.273L42.184 71.2362C42.6539 70.9547 43.0738 70.6398 43.8269 70.01L44.4167 69.5142C45.3498 68.737 45.8397 68.3684 46.5028 67.9865C47.5159 67.4036 48.5423 67.0954 49.6653 67.0954C50.7883 67.0954 51.8114 67.4036 52.8278 67.9865L52.9111 68.0368C53.5342 68.402 54.0241 68.7738 54.9205 69.5209C61.1422 66.5795 66.4108 63.4538 70.6829 60.0334L70.7529 59.9798ZM12.1088 7.08136C20.1733 10.5454 28.8943 16.847 35.9257 24.6092C44.1235 33.6545 49.6186 44.1337 51.3782 55.2594C51.4057 55.4402 51.3853 55.6252 51.3189 55.7955C51.2526 55.9658 51.1426 56.1155 51.0003 56.2294C50.8579 56.3433 50.6881 56.4173 50.5081 56.4441C50.3281 56.4708 50.1443 56.4493 49.9752 56.3817C42.1507 53.2159 34.846 52.1673 28.0145 52.9646C22.2194 53.6346 16.8942 55.6179 11.9655 58.6699C10.9858 59.2796 9.89942 58.0601 10.6159 57.1489C16.8009 49.2594 19.2169 40.4318 18.4238 31.0381C17.7739 23.3596 14.988 15.594 10.8125 8.56211C10.7032 8.3739 10.6556 8.1559 10.6764 7.93897C10.6972 7.72204 10.7853 7.51719 10.9283 7.35341C11.0713 7.18963 11.262 7.07522 11.4732 7.0264C11.6845 6.97757 11.9057 6.9968 12.1055 7.08136H12.1088ZM33.393 15.202C39.3181 17.0212 46.3629 22.244 52.6612 29.4166C59.2727 36.9477 64.4979 45.9461 67.1472 54.8172C67.2012 55.0009 67.2036 55.196 67.1542 55.381C67.1048 55.566 67.0054 55.7336 66.8671 55.8654C66.7288 55.9972 66.557 56.0879 66.3706 56.1276C66.1842 56.1673 65.9905 56.1543 65.8109 56.0903L65.7376 56.0568L64.4513 55.5408C64.1299 55.411 63.8066 55.2859 63.4816 55.1656L63.4282 55.1455C61.1622 54.318 59.4326 54.1706 56.95 54.8072C56.6881 54.8739 56.4105 54.8348 56.1769 54.6983C55.9433 54.5618 55.7722 54.3387 55.7003 54.0768C51.1816 37.5574 43.5003 24.6695 32.5099 17.0446C31.5402 16.3712 32.27 14.857 33.3964 15.202H33.393ZM14.1749 10.331L14.2016 10.3812C17.6273 16.8805 19.8934 23.8856 20.4832 30.8605C21.193 39.2794 19.4502 47.2962 14.9081 54.6196L14.8414 54.7234L14.8514 54.7201C18.8437 52.7736 23.0825 51.4738 27.5979 50.9277L27.7812 50.9076C34.3828 50.1371 41.3875 51.0048 48.8055 53.7117L49.0255 53.7954L49.0021 53.6648C47.026 43.7819 41.9774 34.4451 34.6394 26.2641L34.4061 26.0028C28.4577 19.4366 21.263 13.9424 14.3649 10.4248L14.1749 10.331ZM40.5678 21.1787L40.7277 21.3395C48.1824 29.028 53.6742 39.534 57.3032 52.1304L57.4299 52.5726L57.5032 52.5592C59.8692 52.1137 61.782 52.3482 64.0447 53.1623L64.1347 53.1958L64.3546 53.2762L64.5079 53.3365L64.4246 53.0919C61.722 45.3632 57.0666 37.6144 51.3082 31.0012L51.1149 30.7835C47.7158 26.9141 44.1068 23.641 40.6178 21.2155L40.5678 21.1787Z" fill="white"/>
</svg>
