<svg width="80" height="80" viewBox="0 0 80 80" fill="none" xmlns="http://www.w3.org/2000/svg">
<g clip-path="url(#clip0_10_290)">
<path d="M64 0H16C7.16344 0 0 7.16344 0 16V64C0 72.8366 7.16344 80 16 80H64C72.8366 80 80 72.8366 80 64V16C80 7.16344 72.8366 0 64 0Z" fill="black"/>
<path d="M46.776 67.3306C45.4028 67.3306 44.2939 66.218 44.2939 64.8485V15.4821C44.2939 14.1089 45.4065 13 46.776 13C48.1491 13 49.2581 14.1127 49.2581 15.4821V64.8448C49.2581 66.218 48.1454 67.3306 46.776 67.3306Z" fill="white"/>
<path d="M40.5317 62.8614C40.5317 64.1825 39.4599 65.2579 38.1352 65.2579H27.6337C22.1597 65.1388 18.0514 62.3144 16.0643 57.3056C15.3572 55.5231 15 53.6141 15 51.6232V28.2684V28.2349C15.0819 25.47 15.8559 23.0214 17.2998 20.9561C18.4385 19.3299 19.9791 17.9717 21.8769 16.9148C24.2362 15.6049 26.949 14.9091 29.7288 14.9091H38.1315C39.4525 14.9091 40.528 15.9808 40.528 17.3056C40.528 18.6266 39.4562 19.7021 38.1315 19.7021H29.7325C27.764 19.7021 25.855 20.1858 24.2064 21.1013C21.3373 22.6977 19.8935 25.0644 19.7893 28.3391V51.6232C19.7893 53.0038 20.0349 54.3211 20.5149 55.5417C21.7951 58.7717 24.1469 60.3831 27.7082 60.4686H38.1277C39.4599 60.4649 40.5317 61.5367 40.5317 62.8614Z" fill="url(#paint0_linear_10_290)"/>
<path d="M64.8391 27.5725C65.0028 29.2025 65.0028 30.8659 64.9991 32.5069C64.9879 37.6237 64.9767 42.7367 64.9656 47.8535C64.9581 51.0091 64.9358 54.2541 63.7748 57.1902C62.5877 60.1932 60.2023 62.6977 57.2625 64.0373C56.5332 64.3685 55.7405 64.6364 54.9442 64.5583C53.117 64.3834 52.0825 61.9088 53.5301 60.6212C54.2297 59.9997 55.1786 59.7504 56.0047 59.315C57.8765 58.3252 59.086 56.3715 59.6479 54.3285C60.2098 52.2855 60.2061 50.1384 60.1986 48.0209C60.18 42.1748 60.1577 36.3287 60.1391 30.4826C60.1354 28.8713 60.1242 27.2413 59.7186 25.6784C59.313 24.1192 58.4608 22.6121 57.0951 21.7525C56.1759 21.1719 55.093 20.9189 54.1367 20.4054C53.1803 19.8918 52.3095 18.9541 52.3951 17.8749C52.4733 16.8776 53.3812 16.0887 54.3637 15.8803C55.3424 15.6756 56.3657 15.9435 57.2886 16.3306C60.4852 17.6777 62.9598 20.5319 64.065 23.8215C64.4781 25.0383 64.7088 26.2961 64.8391 27.5725Z" fill="url(#paint1_linear_10_290)"/>
</g>
<defs>
<linearGradient id="paint0_linear_10_290" x1="34.6945" y1="15.1373" x2="22.4896" y2="67.7886" gradientUnits="userSpaceOnUse">
<stop stop-color="#FC6F0D"/>
<stop offset="0.4333" stop-color="#DA00A2"/>
<stop offset="0.5866" stop-color="#B315C5"/>
<stop offset="0.7789" stop-color="#882CEC"/>
<stop offset="0.8768" stop-color="#7735FB"/>
<stop offset="1" stop-color="#C00ED3"/>
</linearGradient>
<linearGradient id="paint1_linear_10_290" x1="58.9242" y1="21.8443" x2="58.0727" y2="62.9293" gradientUnits="userSpaceOnUse">
<stop offset="0.2853" stop-color="#FFBF06"/>
<stop offset="0.5184" stop-color="#FF5C19"/>
<stop offset="0.6895" stop-color="#FC4536"/>
<stop offset="1" stop-color="#F2008E"/>
</linearGradient>
<clipPath id="clip0_10_290">
<rect width="80" height="80" fill="white"/>
</clipPath>
</defs>
</svg>
