<svg width="80" height="80" viewBox="0 0 80 80" fill="none" xmlns="http://www.w3.org/2000/svg">
<g clip-path="url(#clip0_10_339)">
<path d="M64 0H16C7.16344 0 0 7.16344 0 16V64C0 72.8366 7.16344 80 16 80H64C72.8366 80 80 72.8366 80 64V16C80 7.16344 72.8366 0 64 0Z" fill="black"/>
<path d="M50.6091 32.948C53.8195 35.2417 57.7523 36.5912 62 36.5912V28.4216C61.1961 28.4218 60.3943 28.338 59.6078 28.1715V34.6021C55.3605 34.6021 51.4282 33.2525 48.217 30.959V47.6308C48.217 55.9708 41.4526 62.7313 33.1087 62.7313C29.9955 62.7313 27.1018 61.7906 24.698 60.1772C27.4415 62.981 31.2676 64.7203 35.5004 64.7203C43.8447 64.7203 50.6095 57.9598 50.6095 49.6194V32.948H50.6091ZM53.5601 24.7058C51.9194 22.9143 50.8422 20.5991 50.6091 18.0396V16.9888H48.3422C48.9128 20.242 50.8591 23.0213 53.5601 24.7058ZM29.9755 53.7773C29.0588 52.576 28.5635 51.1065 28.5657 49.5955C28.5657 45.7811 31.6597 42.6883 35.4768 42.6883C36.1882 42.6881 36.8953 42.797 37.5733 43.012V34.6598C36.781 34.5513 35.9814 34.5052 35.1822 34.5221V41.023C34.5037 40.808 33.7962 40.6988 33.0847 40.6995C29.2675 40.6995 26.1737 43.792 26.1737 47.6069C26.1737 50.3043 27.7202 52.6397 29.9755 53.7773Z" fill="#FF004F"/>
<path d="M48.217 30.9588C51.4282 33.2524 55.3605 34.6019 59.6078 34.6019V28.1713C57.237 27.6666 55.1382 26.4283 53.5601 24.7058C50.8589 23.0211 48.9128 20.2418 48.3422 16.9888H42.3876V49.619C42.3742 53.4231 39.2855 56.5032 35.4765 56.5032C33.2319 56.5032 31.2379 55.4338 29.975 53.7773C27.7198 52.6397 26.1734 50.3042 26.1734 47.6071C26.1734 43.7925 29.2672 40.6997 33.0843 40.6997C33.8157 40.6997 34.5206 40.8135 35.1818 41.0232V34.5223C26.9846 34.6915 20.392 41.386 20.392 49.6192C20.392 53.7292 22.0337 57.455 24.6982 60.1774C27.102 61.7906 29.9956 62.7315 33.1089 62.7315C41.4529 62.7315 48.2171 55.9707 48.2171 47.6308V30.9588H48.217Z" fill="white"/>
<path d="M59.6078 28.1713V26.4325C57.4699 26.4358 55.374 25.8373 53.5601 24.7057C55.1658 26.4627 57.2802 27.6743 59.6078 28.1713ZM48.3422 16.9888C48.2878 16.6779 48.246 16.3649 48.2169 16.0508V15H39.9953V47.6306C39.9822 51.4341 36.8936 54.5143 33.0843 54.5143C31.966 54.5143 30.9101 54.249 29.975 53.7775C31.2379 55.4339 33.2319 56.5031 35.4765 56.5031C39.2851 56.5031 42.3743 53.4232 42.3876 49.6192V16.9888H48.3422ZM35.1821 34.5223V32.6712C34.4952 32.5773 33.8025 32.5302 33.1091 32.5306C24.7644 32.5304 18 39.2912 18 47.6306C18 52.8589 20.6585 57.4667 24.6984 60.1771C22.0339 57.4549 20.3922 53.7288 20.3922 49.619C20.3922 41.386 26.9846 34.6915 35.1821 34.5223Z" fill="#00F2EA"/>
</g>
<defs>
<clipPath id="clip0_10_339">
<rect width="80" height="80" fill="white"/>
</clipPath>
</defs>
</svg>
