<svg width="30" height="30" viewBox="0 0 30 30" fill="none" xmlns="http://www.w3.org/2000/svg">
<path d="M17.2672 3C17.5013 3 17.7303 3.05089 17.9542 3.15267C18.1883 3.24427 18.4122 3.39695 18.626 3.61069L28.626 13.5954C29.0229 13.9822 29.2214 14.4504 29.2214 15C29.2214 15.5496 29.0229 16.0178 28.626 16.4046L18.5954 26.4046C18.1985 26.8015 17.7557 27 17.2672 27C16.7074 27 16.2545 26.827 15.9084 26.4809C15.5623 26.1349 15.3893 25.7074 15.3893 25.1985C15.3893 24.9135 15.4402 24.659 15.542 24.4351C15.6539 24.2112 15.7964 24.0127 15.9695 23.8397L19.3893 20.3893L23.4218 16.708L19.9542 16.9084H1.93893C1.35878 16.9084 0.890585 16.7354 0.534351 16.3893C0.178117 16.0331 0 15.57 0 15C0 14.4402 0.178117 13.9873 0.534351 13.6412C0.890585 13.285 1.35878 13.1069 1.93893 13.1069H19.9542L23.4027 13.2958L19.3893 9.61069L15.9695 6.16031C15.7964 5.98728 15.6539 5.7888 15.542 5.56489C15.4402 5.33079 15.3893 5.07634 15.3893 4.80153C15.3893 4.29262 15.5623 3.86514 15.9084 3.51908C16.2545 3.17303 16.7074 3 17.2672 3Z" fill="black"/>
</svg>
